<svg width="16" height="16" viewBox="0 0 16 16" fill="none" xmlns="http://www.w3.org/2000/svg">
<g clip-path="url(#clip0_2_321)">
<path d="M12.1999 10.0001C11.0999 9.90009 10.4999 11.4001 9.69989 11.8001C8.39989 12.5001 5.99989 10.0001 5.99989 10.0001C5.99989 10.0001 3.49989 7.60009 4.09989 6.30009C4.59989 5.50009 6.09989 4.90009 5.99989 3.80009C5.89989 2.80009 3.69989 -0.799911 2.59989 0.200089C0.199891 2.40009 -0.000108894 3.30009 -0.000108894 5.10009C-0.100109 8.20009 3.89989 12.1001 3.89989 12.1001C4.29989 12.5001 7.79989 16.1001 10.8999 16.0001C12.6999 16.0001 13.5999 15.8001 15.7999 13.4001C16.7999 12.3001 13.2999 10.1001 12.1999 10.0001Z" fill="#607CE6"/>
</g>
<defs>
<clipPath id="clip0_2_321">
<rect width="16" height="16" fill="white"/>
</clipPath>
</defs>
</svg>
